<svg width="50" height="50" viewBox="0 0 50 50" fill="none" xmlns="http://www.w3.org/2000/svg">
<path d="M36.329 17.3596C32.6826 14.6309 29.189 14.7076 29.189 14.7076L28.8319 15.1155C33.1669 16.4161 35.1816 18.3285 35.1816 18.3285C28.9792 14.9138 21.0793 14.9383 14.6281 18.3285C14.6281 18.3285 16.7191 16.3139 21.3093 15.0134L21.0545 14.7072C21.0545 14.7072 17.5862 14.6309 13.9144 17.3592C13.9144 17.3592 10.2422 23.9638 10.2422 32.0986C10.2422 32.0986 12.3844 35.7708 18.02 35.9493C18.02 35.9493 18.9635 34.8273 19.7285 33.8583C16.49 32.8893 15.2658 30.8747 15.2658 30.8747C17.3005 32.1479 19.3577 32.9447 21.9216 33.4504C26.0927 34.3089 31.2812 33.4262 35.1564 30.8747C35.1564 30.8747 33.8813 32.9403 30.5407 33.8838C31.3057 34.8273 32.2238 35.9238 32.2238 35.9238C37.8593 35.7453 40.0012 32.0731 40.0012 32.0989C40.0009 23.9641 36.329 17.3596 36.329 17.3596ZM20.3658 29.7273C18.9377 29.7273 17.7648 28.4776 17.7648 26.9222C17.8691 23.1969 22.8886 23.2083 22.9669 26.9222C22.9669 28.4776 21.8191 29.7273 20.3658 29.7273ZM29.6733 29.7273C28.2451 29.7273 27.0722 28.4776 27.0722 26.9222C27.1868 23.2042 32.1436 23.2026 32.2744 26.9222C32.2744 28.4776 31.1269 29.7273 29.6733 29.7273Z" fill="#00D2FF"/>
</svg>
