<svg width="197" height="42" viewBox="0 0 197 42" fill="none" xmlns="http://www.w3.org/2000/svg">
<g clip-path="url(#clip0_260_710)">
<path d="M43.0085 21.1126C42.7655 9.10746 32.7727 -0.401362 20.7607 0.0140893C9.02737 0.418796 -0.250621 10.2571 0.00313014 22.0223C0.19255 30.7145 5.48915 38.0924 12.9623 41.3372C14.0238 39.987 14.9065 37.5623 15.3461 36.2085C15.7857 35.1054 16.2503 34.0274 16.7364 32.9816C18.9201 33.7444 21.8543 33.021 23.4554 31.2732L23.5198 31.2016H23.5126C21.5684 30.3456 18.8915 30.7897 17.1259 32.1579C17.7264 30.9079 18.3625 29.701 19.0309 28.5406C21.1788 29.4001 24.1345 28.8163 25.8178 27.1474L25.8857 27.0793H25.8786C24.0058 26.1481 21.3647 26.4382 19.5384 27.6738C20.2031 26.5672 20.8929 25.4999 21.6148 24.4792C23.8378 25.1704 26.7685 24.318 28.3017 22.4879L28.3625 22.4162H28.3553C26.5433 21.7143 24.1631 22.1261 22.469 23.3116C22.5298 23.2328 22.587 23.1504 22.6477 23.0716C23.0802 22.5058 23.5233 21.9578 23.9736 21.4206C26.6005 20.6756 28.9414 17.9931 29.3167 15.221L29.331 15.11H29.3203C26.6041 15.6544 24.088 18.3334 23.5841 21.1663C23.1516 21.682 22.7263 22.2085 22.3118 22.7493C22.9908 20.9049 22.8693 18.6628 21.8793 17.1156V17.1085L21.815 17.1837C20.3175 19.0747 20.078 22.1619 21.2396 24.207C20.5569 25.174 19.8993 26.1804 19.2667 27.2226C19.6635 25.1274 18.9951 22.6956 17.5262 21.3239H17.5191L17.4798 21.4063C16.5112 23.591 17.0295 26.6066 18.627 28.3042C17.998 29.4037 17.394 30.539 16.8222 31.7173C17.1724 29.5398 16.3933 27.022 14.835 25.6539L14.8279 25.6467L14.7922 25.7363C13.9094 28.0284 14.5884 31.1336 16.3039 32.7918C15.9322 33.5976 15.5713 34.4178 15.2246 35.2594C15.1388 35.1735 15.0316 35.1054 14.9101 35.0696C14.4634 34.9371 13.8451 34.7043 13.1624 34.2924C12.7121 34.0238 12.2332 33.8018 11.7364 33.637C9.79577 32.9995 10.0817 32.0612 9.07025 30.1845C9.00592 30.0627 8.20178 29.2246 8.03023 29.0742C7.98735 29.0384 7.47627 28.7375 7.21537 28.1896C6.97592 27.6846 6.84368 27.219 6.79365 26.7606C6.72931 26.1481 6.47556 25.747 5.88229 25.5429C3.0267 24.5544 4.30617 20.8404 4.40624 20.3461C4.49202 19.9235 4.1239 19.0067 3.98809 18.5017C3.97379 18.4408 3.9595 18.3656 3.94163 18.276C3.73434 17.2804 4.19895 16.4387 4.54205 16.0913C4.88515 15.7439 6.06813 15.1924 6.31831 14.8665C6.56134 14.5477 6.75791 14.1824 7.00808 13.8708C7.34046 13.4554 8.35904 12.6424 9.73144 11.9046C10.5606 11.4605 10.7107 10.2929 11.0252 9.93837C11.5684 9.32593 12.3869 9.32593 12.998 8.77439C13.3054 8.49503 13.7521 8.35893 14.0381 8.06525C15.4533 6.61117 17.3475 6.02381 19.2239 5.67282C20.4855 5.43645 21.8936 5.80176 23.2124 6.02381C23.4054 6.05604 23.5912 6.1026 23.7699 6.15632C26.7327 6.25661 30.3031 6.8762 31.5897 8.13688C32.3939 8.92481 32.787 9.78078 32.98 10.3717C33.1945 11.0307 33.4911 11.6611 33.8521 12.252L34.6455 13.5449C35.1458 14.3615 35.3138 15.3464 35.0958 16.2812C34.9743 16.8148 34.91 17.3735 35.0672 17.6851C35.3138 18.1686 36.0751 18.9601 36.5325 19.4114C36.7541 19.6298 36.9971 19.8232 37.2616 19.9916C37.8728 20.3784 39.0271 21.1197 39.0307 21.1842C39.0307 21.2702 39.1272 21.6391 38.6161 22.0832C38.1051 22.5273 37.1401 23.2364 37.1401 23.2364C37.1401 23.2364 37.1901 23.5623 37.3259 23.8202C37.4618 24.078 37.7941 24.4648 37.6941 24.8122C37.594 25.1596 36.8828 25.439 37.0865 25.8258C37.2902 26.2126 37.7906 26.3344 37.6476 26.6854C37.5011 27.0363 36.797 27.638 36.8685 27.8995C36.94 28.1609 37.5082 30.5641 36.193 30.9831C35.1994 31.2983 32.4761 31.4774 31.1966 31.5454C30.6427 31.5741 30.1459 31.8892 29.8814 32.3727C29.6813 32.7381 29.4883 33.2395 29.3882 33.9092C29.1416 35.6104 27.4618 39.5214 27.4618 39.5214C27.4618 39.5214 27.4118 39.6217 27.3367 39.7828C27.1902 40.1338 26.9829 40.6889 27.0115 40.911C27.0294 41.0578 27.2295 41.3408 27.519 41.6882C27.7477 41.9639 28.1266 42.0714 28.4661 41.9532C37.0901 39.0021 43.2122 30.7288 43.0157 21.1126" fill="#00D2FF"/>
<path d="M62.1406 10.6016H67.062L72.5194 19.3941L77.9768 10.6016H82.8982V31.3992H78.3592V17.8218L72.5194 26.7039H72.4015L66.6188 17.9114V31.3992H62.1406V10.6016Z" fill="white"/>
<path d="M99.1484 10.6016H114.802V14.6701H103.684V18.8891H113.469V22.9612H103.684V27.3307H114.952V31.3992H99.1484V10.6016Z" fill="white"/>
<path d="M135.112 14.8205H128.797V10.6016H145.995V14.8205H139.68V31.3992H135.112V14.8205Z" fill="white"/>
<path d="M165.538 10.6016H160.971V31.4028H165.538V10.6016Z" fill="white"/>
<path d="M180.57 28.3693L183.269 25.1317C185.166 26.6753 187.093 27.6566 189.466 27.6566C191.364 27.6566 192.461 26.9153 192.461 25.694V25.6331C192.461 24.4763 191.75 23.8495 188.279 22.99C184.069 21.9513 181.399 20.7336 181.399 16.6328V16.572C181.399 12.7971 184.394 10.3008 188.665 10.3008C191.717 10.3008 194.241 11.2535 196.374 12.9439L194.001 16.3893C192.132 15.1107 190.384 14.3407 188.605 14.3407C186.825 14.3407 185.935 15.1143 185.935 16.1529V16.2138C185.935 17.6106 186.825 17.9974 190.413 18.9465C194.623 20.0746 196.996 21.561 196.996 25.1854V25.2463C196.996 29.3757 193.855 31.693 189.377 31.693C186.203 31.693 183.061 30.6221 180.57 28.3658" fill="white"/>
</g>
<defs>
<clipPath id="clip0_260_710">
<rect width="197" height="42" fill="white"/>
</clipPath>
</defs>
</svg>
