<svg width="212" height="56" viewBox="0 0 212 56" fill="none" xmlns="http://www.w3.org/2000/svg">
<mask id="mask0_415_237" style="mask-type:luminance" maskUnits="userSpaceOnUse" x="0" y="0" width="212" height="56">
<path d="M211.12 0H0V56H211.12V0Z" fill="white"/>
</mask>
<g mask="url(#mask0_415_237)">
<path d="M90.0021 20.5975C90.0021 20.8075 89.7396 21.1575 89.3371 20.4925C88.9346 19.8275 86.0471 15.2425 84.9796 13.9125C83.7196 12.39 82.8446 11.62 81.8821 11.62C81.819 11.6037 81.7527 11.6037 81.6896 11.62C81.6896 11.62 81.5321 11.725 81.4796 11.83C81.3459 12.0054 81.2778 12.2221 81.2871 12.4425C81.1821 13.195 81.1296 26.635 81.1821 34.8425C81.1821 37.275 81.1821 38.99 81.1821 39.795C81.1818 40.984 81.3708 42.1655 81.7421 43.295C81.8694 43.999 82.2645 44.6263 82.8446 45.045C82.891 45.045 82.9355 45.0634 82.9683 45.0963C83.0012 45.1291 83.0196 45.1736 83.0196 45.22C83.0196 45.2664 83.0012 45.3109 82.9683 45.3437C82.9355 45.3766 82.891 45.395 82.8446 45.395H82.6521C82.6521 45.395 81.0246 45.395 78.8021 45.395H73.7271C73.3246 45.395 73.3246 45.0975 73.5346 44.94C74.1214 44.4 74.5252 43.6904 74.6896 42.91C74.9542 41.8511 75.0894 40.764 75.0921 39.6725C75.0921 38.4475 75.1971 37.345 75.1971 35.2625C75.1971 30.6075 75.1971 23.905 75.1971 15.645C75.1971 12.5125 75.0046 11.55 73.9371 11.6025C72.8696 11.655 72.0646 12.4075 70.7871 13.93C69.7196 15.19 66.7796 19.8625 66.4296 20.51C66.0796 21.1575 65.7821 20.825 65.7821 20.615C65.7821 19.95 65.9746 18.865 66.0796 18.2875C66.2896 16.66 66.4821 12.145 66.6921 10.43C66.6921 9.975 66.8846 9.87 67.2521 9.9225C68.6045 10.1718 69.973 10.3238 71.3471 10.3775C73.2196 10.4825 78.3471 10.3775 81.5321 10.3775H81.8471C82.8971 10.3775 83.8071 10.3775 84.3671 10.3775C86.5546 10.2725 87.8671 10.0275 88.4796 9.975C89.0921 9.9225 88.9871 9.975 89.0396 10.4825C89.1796 12.2325 89.4421 16.7125 89.6346 18.34C89.7396 18.8825 89.8446 19.9325 90.0021 20.5975Z" fill="white"/>
<path d="M112.295 35.4375C111.767 38.6595 111.41 41.9075 111.228 45.1675C111.228 45.3775 111.228 45.43 110.72 45.43H101.97C98.8205 45.535 96.843 45.43 94.2705 45.43H92.888C92.8469 45.4631 92.7991 45.487 92.748 45.5C92.293 45.5 92.2405 45.0975 92.748 44.73C94.113 42.4025 94.008 37.59 94.113 33.5825C94.113 30.3975 94.113 23.5025 94.113 23.5025V21.7525C94.1238 19.3475 93.9718 16.9445 93.658 14.56C93.658 14.35 93.658 14.14 93.553 14V13.8075C93.3935 12.6711 92.9612 11.5903 92.293 10.6575C92.293 10.6575 92.293 10.5175 92.293 10.465V10.5C92.293 10.3425 92.503 10.3425 94.3755 10.3425H94.778C97.473 10.3425 99.853 10.3425 102.285 10.3425C103.755 10.3425 106.135 10.3425 108.358 10.2025L109.985 10.045C110.24 10.0145 110.492 9.96179 110.738 9.88749C111.053 9.88749 111.14 9.78249 111.298 9.88749C111.455 9.99249 111.403 10.9025 111.508 12.32C111.7 15.2075 111.753 16.5375 111.91 18.6025C111.91 19.2675 112.05 19.9325 112.05 20.58C112.05 20.7375 112.05 20.895 111.963 20.895H111.858C111.14 20.895 109.828 17.395 107.605 15.015C104.508 11.725 101.218 11.305 100.605 11.6725C100.47 11.7562 100.361 11.8758 100.29 12.0179C100.219 12.1601 100.189 12.3192 100.203 12.4775C100.045 13.65 99.993 18.865 100.045 25.1475C100.045 25.2532 100.074 25.3569 100.13 25.4467C100.185 25.5365 100.265 25.6087 100.36 25.655C101.376 25.7796 102.402 25.5308 103.248 24.955L104.07 24.5C105.089 23.8742 105.913 22.9774 106.45 21.91C106.555 21.56 107.01 21.455 107.01 22.12C107.01 24.605 107.15 27.2825 107.308 29.12L107.658 31.9025C107.684 32.0044 107.679 32.1116 107.645 32.2111C107.611 32.3105 107.548 32.3978 107.465 32.4625C107.36 32.4625 107.203 32.4625 107.045 32.165C106.485 31.0916 105.731 30.1306 104.823 29.33C103.851 28.3516 102.647 27.6352 101.323 27.2475C100.518 27.09 99.958 27.2475 99.958 28.0525C99.958 34.7025 99.958 37.9925 100.063 39.5675C100.063 39.76 100.063 40.075 100.063 40.3725C100.063 41.125 100.063 41.7375 100.063 42.1225C100.063 43.085 100.413 43.8725 101.13 44.1C101.849 44.1633 102.572 44.0744 103.254 43.8392C103.935 43.604 104.559 43.2278 105.085 42.735C108.585 39.55 111.228 33.8625 112.295 33.985C112.645 34.02 112.4 34.7375 112.295 35.4375Z" fill="white"/>
<path d="M138.337 20.5976C138.337 20.8076 138.092 21.1576 137.69 20.4926C137.287 19.8276 134.382 15.2426 133.315 13.9126C132.055 12.3901 131.197 11.6201 130.235 11.6201C130.166 11.6015 130.094 11.6015 130.025 11.6201C130.025 11.6201 129.885 11.7251 129.832 11.8301C129.687 11.9999 129.612 12.2191 129.622 12.4426C129.535 13.1951 129.482 26.6351 129.535 34.8426C129.535 37.2751 129.535 38.9901 129.535 39.7951C129.535 40.9841 129.724 42.1655 130.095 43.2951C130.235 43.9985 130.635 44.6233 131.215 45.0451C131.261 45.0451 131.306 45.0635 131.339 45.0963C131.372 45.1291 131.39 45.1737 131.39 45.2201C131.39 45.2665 131.372 45.311 131.339 45.3438C131.306 45.3766 131.261 45.3951 131.215 45.3951H131.005C131.005 45.3951 129.395 45.3951 127.155 45.3951H122.132C121.712 45.3951 121.712 45.0976 121.922 44.9401C122.515 44.4017 122.925 43.6922 123.095 42.9101C123.36 41.8512 123.495 40.764 123.497 39.6726C123.497 38.4476 123.585 37.3451 123.585 35.2626C123.585 30.5901 123.585 23.9051 123.585 15.6451C123.585 12.5126 123.375 11.5501 122.307 11.6026C121.24 11.6551 120.4 12.3901 119.14 14.0001C118.072 15.2601 115.132 19.9326 114.782 20.5801C114.432 21.2276 114.117 20.8951 114.117 20.6851C114.222 20.0201 114.327 18.9351 114.415 18.3576C114.625 16.7301 114.835 12.2151 115.027 10.5001C115.027 10.0451 115.237 9.94007 115.587 9.99257C116.946 10.2413 118.32 10.3934 119.7 10.4476C121.572 10.5526 126.7 10.4476 129.885 10.4476H130.182C131.25 10.4476 132.16 10.4476 132.72 10.4476C134.89 10.3426 136.22 10.0976 136.815 10.0451C137.41 9.99257 137.322 10.0451 137.375 10.5526C137.532 12.3026 137.777 16.7826 137.987 18.4101C138.145 18.8826 138.25 19.9326 138.337 20.5976Z" fill="white"/>
<path d="M163.064 45.5C162.312 45.5 160.492 45.5 160.124 45.5H156.082C154.804 45.5 154.804 45.5 154.717 45.29C154.402 44.73 156.082 44.38 156.082 41.2825V36.8725C156.082 35.945 156.082 34.895 156.082 33.67V28.245C156.077 28.0979 156.017 27.958 155.913 27.8539C155.809 27.7498 155.669 27.6894 155.522 27.685H148.417C148.271 27.6896 148.133 27.7506 148.032 27.8551C147.931 27.9596 147.874 28.0995 147.874 28.245V33.25C147.874 34.0025 147.874 34.825 147.874 35.63C147.874 37.38 148.119 39.4275 148.277 41.1075C148.732 45.01 149.747 44.6075 149.694 45.0975C149.642 45.5875 149.799 45.3075 147.822 45.3075H141.277C140.874 45.3075 140.629 45.0625 141.172 44.6425C141.699 43.7487 142 42.7393 142.047 41.7025V32.0775C142.047 29.19 142.047 25.69 142.047 21.7875V16.9575C142.047 16.0825 141.889 15.2075 141.837 14.42C141.382 10.5175 140.367 10.92 140.472 10.4125C140.577 9.90502 140.472 10.255 142.099 10.2025H142.642C144.112 10.2025 145.949 10.2025 147.664 10.2025H149.029C149.432 10.2025 149.694 10.465 149.134 10.8675C148.382 11.6725 147.979 15.3825 147.874 19.3375C147.874 20.195 147.874 21.0875 147.874 21.91V25.41C147.879 25.6221 147.965 25.8243 148.115 25.9743C148.265 26.1243 148.467 26.2106 148.679 26.215H155.574C155.723 26.215 155.865 26.156 155.97 26.051C156.075 25.946 156.134 25.8035 156.134 25.655V20.3525C156.134 19.075 156.134 17.955 156.134 17.045C155.749 14 155.417 11.62 154.804 11.025C154.192 10.43 154.507 10.3075 154.962 10.255H157.499H161.804C163.327 10.255 163.117 10.255 163.169 10.465C163.222 10.675 162.259 10.57 161.909 14.4725C161.909 14.77 161.909 15.015 161.909 15.33C161.752 16.8525 161.909 18.515 161.909 19.9325C161.752 27.09 162.067 39.1825 162.067 39.1825C162.057 41.0529 162.47 42.9014 163.274 44.59C163.677 45.22 163.484 45.5 163.064 45.5Z" fill="white"/>
<path d="M189.874 10.6575C189.263 11.1015 188.679 11.5807 188.124 12.0925C186.967 13.3351 186.074 14.7997 185.499 16.3975L180.249 29.8725C180.249 35.595 180.249 38.3775 180.354 39.76C180.494 41.685 181.212 44.4675 182.279 45.01C182.524 45.15 182.437 45.465 182.122 45.465H173.004C172.549 45.465 172.549 45.255 172.794 45.01C173.862 43.3953 174.467 41.5192 174.544 39.585C174.649 38.1675 174.649 35.175 174.649 29.3475C174.649 29.3475 169.679 18.095 169.399 17.5875C168.332 15.015 166.459 11.2525 165.444 10.9025C165.094 10.745 164.744 10.3425 165.444 10.3425L169.959 10.5L175.122 10.395C175.122 10.395 175.332 10.395 175.384 10.395C175.437 10.395 175.682 10.64 175.279 10.85C173.809 11.515 174.632 14.7 175.437 16.5725L179.339 27.0725C179.444 27.3175 179.532 27.475 179.689 27.0725L183.434 16.6775C184.055 15.1452 184.129 13.4456 183.644 11.865C183.442 11.449 183.149 11.0841 182.787 10.7975C182.682 10.7975 182.472 10.5 182.787 10.395H185.674H189.822C190.189 10.2025 190.224 10.6225 189.874 10.6575Z" fill="white"/>
<path d="M211.312 37.3275C211.262 39.4673 210.429 41.5145 208.972 43.0817C207.514 44.649 205.533 45.6277 203.402 45.8325C199.439 46.1873 195.447 45.686 191.695 44.3625C191.292 44.205 191.292 43.96 191.45 43.61C192.318 40.0019 192.961 36.3431 193.375 32.655C193.375 32.3575 193.83 32.1475 194.04 32.655C194.74 34.895 196.77 44.31 201.582 44.31C204.977 44.31 205.695 40.81 205.082 38.3775C203.91 34.125 198.642 30.6775 194.792 26.635C192.22 23.94 190.942 21.56 191.292 18.0075C191.8 12.7575 196.052 9.15254 201.985 9.55504C204.625 9.67999 207.214 10.3346 209.597 11.48C209.597 11.48 209.685 11.6725 209.597 11.935C208.722 15.33 208.267 19.425 208.022 20.1425C208.022 20.3525 207.62 20.3525 207.567 20.1425C207.357 19.4775 204.627 11.8825 200.917 11.1125C196.42 10.15 195.457 15.9425 197.627 19.18C199.255 21.665 202.492 23.5375 206.5 27.4925C210.507 31.4475 211.417 33.985 211.312 37.3275Z" fill="white"/>
<path d="M27.9991 56C33.537 56 38.9505 54.3578 43.5551 51.2812C48.1597 48.2045 51.7485 43.8315 53.8678 38.7151C55.987 33.5988 56.5415 27.969 55.4611 22.5375C54.3807 17.106 51.714 12.1169 47.7981 8.20102C43.8823 4.28515 38.8931 1.61841 33.4617 0.538025C28.0302 -0.542361 22.4003 0.0121319 17.284 2.13139C12.1677 4.25064 7.79468 7.83947 4.718 12.444C1.64132 17.0486 -0.000854492 22.4621 -0.000854492 28C-0.000854492 35.4261 2.94914 42.548 8.20016 47.799C13.4512 53.05 20.5731 56 27.9991 56Z" fill="#CCB175"/>
<path d="M45.4992 32.6025L47.9842 31.36C48.0805 31.3059 48.1637 31.2314 48.2279 31.1416C48.2921 31.0518 48.3358 30.949 48.3558 30.8404C48.3759 30.7319 48.3718 30.6202 48.3439 30.5135C48.3159 30.4067 48.2649 30.3073 48.1943 30.2225L45.0793 22.61C44.6307 21.4913 44.3534 20.3113 44.2568 19.11C43.9553 15.4259 42.6432 11.8964 40.465 8.90992C38.2868 5.92348 35.3269 3.59587 31.9111 2.18329C28.4952 0.770703 24.7559 0.327907 21.1046 0.903634C17.4533 1.47936 14.0316 3.05129 11.2162 5.44641C8.40071 7.84154 6.30062 10.967 5.14705 14.4788C3.99348 17.9906 3.83115 21.7526 4.67792 25.3507C5.52469 28.9488 7.34773 32.2435 9.9464 34.8723C12.5451 37.501 15.8186 39.3618 19.4068 40.25L18.3743 40.8275L11.6018 56H30.0818L34.6318 46.0075C34.8901 45.4548 35.3085 44.9925 35.8327 44.6805C36.3569 44.3685 36.9628 44.2211 37.5717 44.2575L41.7718 44.6075C42.0967 44.638 42.4245 44.5983 42.7327 44.4909C43.041 44.3836 43.3225 44.2112 43.5582 43.9855C43.794 43.7597 43.9784 43.4858 44.0989 43.1825C44.2194 42.8792 44.2732 42.5534 44.2568 42.2275V40.88C44.2531 39.9651 44.521 39.0698 45.0267 38.3075V38.045C45.0192 37.7854 44.9231 37.5362 44.7544 37.3389C44.5856 37.1415 44.3545 37.0078 44.0993 36.96C43.0669 36.7974 42.0886 36.3893 41.2467 35.77C42.4952 35.7545 43.7409 35.6492 44.9743 35.455C45.1121 35.4379 45.245 35.3933 45.3652 35.3236C45.4854 35.254 45.5902 35.1609 45.6736 35.0498C45.7569 34.9387 45.8169 34.8119 45.8501 34.6771C45.8833 34.5422 45.889 34.402 45.8667 34.265L45.4992 32.6025Z" fill="white"/>
<path d="M24.6388 40.7399L32.6013 24.0624C38.4988 23.1349 42.1913 11.6899 41.8238 11.0249C41.0793 9.60375 40.1366 8.29566 39.0238 7.13993C37.1566 5.01744 34.8449 3.33224 32.2528 2.20409C29.6608 1.07593 26.8521 0.532507 24.0263 0.612433C20.1003 0.659921 16.2743 1.8578 13.0222 4.05777C9.77011 6.25774 7.23462 9.36319 5.72965 12.9896C4.22468 16.6161 3.81632 20.6043 4.55514 24.4605C5.29396 28.3167 7.14751 31.8716 9.8863 34.6849C7.16319 34.8689 4.61585 36.0957 2.77424 38.1101C0.932632 40.1244 -0.0614514 42.7713 -0.00119669 45.4999C0.0597631 47.8859 0.918579 50.1827 2.43807 52.0233C3.95756 53.8639 6.05005 55.1422 8.38131 55.654C10.7126 56.1658 13.1481 55.8815 15.2989 54.8467C17.4496 53.8118 19.1915 52.086 20.2463 49.9449C20.2463 49.9449 20.2463 49.8399 20.2463 49.7874L24.6388 40.7399Z" fill="#0000AE"/>
<path d="M30.326 5.73999C29.0359 10.6951 26.5273 15.249 23.0285 18.9875L30.0285 15.4875C26.9135 22.3825 21.891 27.7375 15.7835 29.785L21.8385 29.575C19.7018 31.833 16.9516 33.417 13.9263 34.1321C10.901 34.8472 7.73259 34.6623 4.81104 33.6C4.27937 33.3507 3.81897 32.9717 3.47223 32.4978C3.12549 32.0239 2.90355 31.4703 2.82686 30.8882C2.75016 30.306 2.82118 29.7139 3.03336 29.1663C3.24554 28.6188 3.59207 28.1335 4.04104 27.755L30.326 5.73999Z" fill="white"/>
<path d="M41.4035 25.7774C42.086 25.7774 42.646 24.8499 42.646 23.7124C42.646 22.5749 42.086 21.6299 41.4035 21.6299C40.721 21.6299 40.161 22.5574 40.161 23.7124C40.161 24.8674 40.721 25.7774 41.4035 25.7774Z" fill="#0000AE"/>
</g>
</svg>
