<svg width="50" height="50" viewBox="0 0 50 50" fill="none" xmlns="http://www.w3.org/2000/svg">
<path d="M37.8598 19.3605C37.8598 19.1418 37.5317 17.3922 36.7663 16.6268C35.7821 15.5333 34.6886 15.4239 34.1418 15.4239H34.0325C30.6426 15.2052 25.6125 15.2052 25.5031 15.2052C25.5031 15.2052 20.3636 15.2052 16.9737 15.4239H16.8644C16.3176 15.4239 15.2241 15.5333 14.2399 16.6268C13.4745 17.5016 13.1464 19.2512 13.1464 19.4699C13.1464 19.5792 12.9277 21.5476 12.9277 23.6252V25.4842C12.9277 27.5619 13.1464 29.5302 13.1464 29.6395C13.1464 29.8582 13.4745 31.6079 14.2399 32.3733C15.1148 33.3575 16.2083 33.4668 16.8644 33.5762C16.9737 33.5762 17.0831 33.5762 17.1924 33.5762C19.1607 33.7949 25.175 33.7949 25.3937 33.7949C25.3937 33.7949 30.5332 33.7949 33.9231 33.5762H34.0325C34.5792 33.4668 35.6727 33.3575 36.6569 32.3733C37.4224 31.4985 37.7504 29.7489 37.7504 29.5302C37.7504 29.4208 37.9691 27.4525 37.9691 25.3748V23.5159C38.0785 21.5476 37.8598 19.4699 37.8598 19.3605ZM29.7678 24.7187L23.2067 28.218C23.0974 28.218 23.0974 28.3273 22.988 28.3273C22.8787 28.3273 22.7693 28.3273 22.7693 28.218C22.66 28.1086 22.5506 27.9993 22.5506 27.7806V20.6728C22.5506 20.454 22.66 20.3447 22.7693 20.2353C22.8787 20.126 23.0974 20.126 23.3161 20.2353L29.8771 23.7346C30.0958 23.8439 30.2052 23.9533 30.2052 24.172C30.2052 24.3907 29.9865 24.6094 29.7678 24.7187Z" fill="#00D2FF"/>
</svg>
